<?xml version="1.0" ?><svg id="Layer_1" style="enable-background:new 0 0 74 74;" version="1.1" viewBox="0 0 74 74" xml:space="preserve" xmlns="http://www.w3.org/2000/svg" xmlns:xlink="http://www.w3.org/1999/xlink"><style type="text/css">
	.st0{fill:#2B3033;}
</style><path class="st0" d="M54.4,45.5L37.6,20.7l5.9-5.9c0.4-0.4,0.6-0.9,0.6-1.4s-0.2-1-0.6-1.4L33.1,1.6c-0.8-0.8-2.1-0.8-2.8,0L19.8,12  c-0.4,0.4-0.6,0.9-0.6,1.4s0.2,1,0.6,1.4l6,6l-6.6,39.4c-0.1,0.6,0.1,1.3,0.6,1.7l10.4,10.4c0.4,0.4,0.9,0.6,1.4,0.6  c0.5,0,1-0.2,1.4-0.6L43.5,62c0.5-0.5,0.7-1.1,0.6-1.7l-1.5-9.3l1.3,1.8c0.3,0.4,0.8,0.7,1.3,0.8l6.2,1.2c0.1,0,0.2,0,0.4,0  c0.4,0,0.8-0.1,1.1-0.3c0.4-0.3,0.7-0.8,0.8-1.3l1.2-6.2C54.8,46.5,54.7,46,54.4,45.5z M31.7,5.8l7.6,7.6l-4.7,4.7h-5.7l-4.7-4.7  L31.7,5.8z M31.7,68.2l-8.3-8.3l6.3-37.8h4l6.3,37.8L31.7,68.2z M50,50.5l-3.4-0.6l-5.7-8.3L39,30l11.6,17.1L50,50.5z"/></svg>